<?xml version="1.0" encoding="utf-8"?>
<!-- Generator: Adobe Illustrator 18.0.0, SVG Export Plug-In . SVG Version: 6.00 Build 0)  -->
<!DOCTYPE svg PUBLIC "-//W3C//DTD SVG 1.1//EN" "http://www.w3.org/Graphics/SVG/1.1/DTD/svg11.dtd">
<svg version="1.1" id="Capa_1" xmlns="http://www.w3.org/2000/svg" xmlns:xlink="http://www.w3.org/1999/xlink" x="0px" y="0px"
	 viewBox="0 0 316.6 316.6" enable-background="new 0 0 316.6 316.6" xml:space="preserve">
<g>
	<g>
		<path fill="#E75220" d="M56.4,114.3c7.9,0,15.5-1.6,22.6-4.7c0.7-0.3,1.4-0.4,2.1-0.4c1.4,0,2.8,0.5,3.8,1.6l40,40l27.2-27.2
			l-41.3-41.3c-1.5-1.5-2-3.6-1.3-5.6c7.2-20.4,2-43.4-13.2-58.7C85.7,7.3,71.5,1.5,56.5,1.5c-4.6,0-9,0.5-13.4,1.6l26.5,26.5
			c1.1,1.1,1.7,2.6,1.6,4.1l-1.7,32.1c-0.1,2.7-2.3,4.9-5.1,5.1l-32.1,1.7c-1.6,0.1-3-0.5-4.1-1.6L1.6,44.5
			c-4.6,19,0.8,39.2,14.9,53.3C27.2,108.4,41.3,114.3,56.4,114.3z"/>
		<path fill="#E75220" d="M234.4,110.9c1.5-1.5,3.6-2,5.6-1.3c6.1,2.1,12.4,3.2,18.9,3.2c15,0,29.2-5.9,39.8-16.5
			c14.1-14.1,19.6-34.3,14.9-53.3l-26.5,26.5c-1.1,1.1-2.6,1.7-4.1,1.6l-32.1-1.7c-2.8-0.1-4.9-2.3-5.1-5.1L244,32.2
			c-0.1-1.5,0.5-3,1.6-4.1l26.5-26.5c-4.4-1.1-8.9-1.6-13.4-1.6c-15.1,0-29.2,5.9-39.9,16.5c-16.5,16.5-21.1,41-11.8,62.5
			c0.9,2,0.4,4.4-1.1,5.9l-42.4,42.4c0,0,0,0,0,0l-34.8,34.8c0,0,0,0,0,0l-44.5,44.5c-1.5,1.5-3.7,2-5.7,1.2l-1.1-0.5
			c-0.3-0.1-0.5-0.2-0.8-0.3c-6.1-2.1-12.5-3.2-18.9-3.2c-15.1,0-29.2,5.9-39.8,16.5C3.9,234.4-1.6,254.6,3.1,273.6L29.6,247
			c1.1-1.1,2.6-1.6,4.1-1.6l32.1,1.7c2.7,0.1,4.9,2.3,5.1,5.1l1.7,32.1c0.1,1.5-0.5,3-1.6,4.1L44.5,315c4.4,1.1,8.8,1.6,13.4,1.6
			c15.1,0,29.2-5.9,39.9-16.5c15.9-15.9,20.8-39.6,12.5-60.6c-0.8-2-0.3-4.3,1.2-5.8l44.4-44.4c0,0,0,0,0,0l17.6-17.6L234.4,110.9z"
			/>
		<path fill="#E75220" d="M300.1,218.8c-10.6-10.6-24.7-16.5-39.8-16.5c-7.2,0-14.2,1.3-20.8,3.9c-2,0.8-4.3,0.3-5.8-1.2l-39.2-39.2
			l-13.5,13.5l-13.7,13.7l39.2,39.2c1.5,1.5,2,3.7,1.2,5.7l-0.5,1.1c-0.1,0.3-0.2,0.5-0.3,0.8c-7.2,20.4-2,43.5,13.2,58.7
			c10.7,10.6,24.8,16.5,39.9,16.5c4.6,0,9-0.5,13.4-1.6l-26.5-26.5c-1.1-1.1-1.7-2.6-1.6-4.1l1.7-32.1c0.1-2.8,2.3-4.9,5.1-5.1
			l32.1-1.7c1.5-0.1,3,0.5,4.1,1.6l26.5,26.5C319.7,253.1,314.2,232.9,300.1,218.8z"/>
	</g>
</g>
</svg>
